<svg xmlns="http://www.w3.org/2000/svg" viewBox="0 0 72 72"><defs><style>.cls-1{fill:#f62d63;}.cls-2{fill:#fff;}</style></defs><title>Brand Logo</title><g id="Layer_2" data-name="Layer 2"><g id="Logos"><path class="cls-1" d="M0,0V72H72V0Z"/><path class="cls-2" d="M42.6,37.66V48.81H41.29l-6.71-8.32v8.32H33V37.66H34.3L41,46V37.66Z"/><path class="cls-2" d="M48.4,43.86l-2,2.07v2.88H44.76V37.66h1.59v6.23l6.07-6.23h1.82l-4.77,5,5.07,6.13H52.68Z"/><path class="cls-2" d="M55,47.54l.59-1.24a5.81,5.81,0,0,0,3.69,1.29c1.93,0,2.76-.75,2.76-1.73,0-2.72-6.77-1-6.77-5.14,0-1.73,1.34-3.19,4.28-3.19a6.56,6.56,0,0,1,3.59,1l-.53,1.27a5.77,5.77,0,0,0-3.06-.91c-1.9,0-2.72.8-2.72,1.77,0,2.73,6.77,1,6.77,5.12,0,1.7-1.37,3.17-4.32,3.17A6.63,6.63,0,0,1,55,47.54Z"/><path class="cls-2" d="M18.5,37.66V48.81H16.91V45.2H10.49v3.61H8.89V37.66h1.6v6.16h6.42V37.66Z"/><path class="cls-2" d="M28.29,45.18h-5.2l-1.6,3.63H19.85l5.06-11.15h1.58l5.08,11.15H29.89Zm-.59-1.34-2-4.56-2,4.56Z"/><path class="cls-2" d="M18.5,23.26V34.42H16.91V30.81H10.49v3.61H8.89V23.26h1.6v6.16h6.42V23.26Z"/><path class="cls-2" d="M28.29,30.79h-5.2l-1.6,3.63H19.85l5.06-11.16h1.58l5.08,11.16H29.89Zm-.59-1.34-2-4.56-2,4.56Z"/><path class="cls-2" d="M40.46,34.42l-2.52-3.63H34.58v3.62H33V23.26h4.36c2.9,0,4.66,1.47,4.66,3.89a3.52,3.52,0,0,1-2.46,3.53l2.65,3.74Zm-.05-7.37c0-1.6-1.07-2.4-3.11-2.4H34.58v4.79H37.3C39.34,29.44,40.41,28.64,40.41,27.05Z"/><path class="cls-2" d="M47.19,24.65H42.82V23.26H53.14v1.39H48.77v9.77H47.19Z"/><path class="cls-2" d="M63,33v1.38H54.88V23.26h7.88v1.39H56.47v4.14h5.61v1.35H56.47V33Z"/></g></g></svg>